# File produced by Open Asset Import Library (http://www.assimp.sf.net)
# (assimp v5.2.2765304118)

mtllib Панель.mtl

# 8 vertex positions
v 0 0 16
v 0 0 0
v 1000 0 0
v 1000 0 16
v 1000 1000 0
v 1000 1000 16
v 0 1000 0
v 0 1000 16

# 9 UV coordinates
vt -0.0160000008 -9.7968511e-19 0
vt 0 0 0
vt 6.12303177e-17 -1 0
vt -0.0160000008 -1 0
vt -1 0 0
vt 0 -1 0
vt -1 -1 0
vt 1 0 0
vt 1 -1 0

# 6 vertex normals
vn 0 -1 0
vn 1 0 0
vn 0 1 0
vn -1 0 0
vn 0 0 -1
vn 0 0 1

# Mesh '' with 2 faces
usemtl ДСП бук 16
f  1/1/1 2/2/1 3/3/1
f  1/1/1 3/3/1 4/4/1

# Mesh '' with 2 faces
usemtl ДСП бук 16
f  4/1/2 3/2/2 5/3/2
f  4/1/2 5/3/2 6/4/2

# Mesh '' with 2 faces
usemtl ДСП бук 16
f  6/1/3 5/2/3 7/3/3
f  6/1/3 7/3/3 8/4/3

# Mesh '' with 2 faces
usemtl ДСП бук 16
f  8/1/4 7/2/4 2/3/4
f  8/1/4 2/3/4 1/4/4

# Mesh '' with 2 faces
usemtl ДСП бук 16
f  3/5/5 2/2/5 7/6/5
f  5/7/5 3/5/5 7/6/5

# Mesh '' with 2 faces
usemtl ДСП бук 16
f  8/6/6 1/2/6 4/8/6
f  8/6/6 4/8/6 6/9/6

